<svg width="100" height="100" viewBox="0 0 100 100" fill="none" xmlns="http://www.w3.org/2000/svg">
<g clip-path="url(#clip0_1_833)">
<path d="M22.2656 8.10546C12.246 9.51171 3.9062 16.7187 1.07417 26.4648C-4.72962e-05 30.1562 -4.72758e-05 29.8633 -4.72758e-05 61.582C-4.72758e-05 94.1406 -0.0977036 91.7773 1.32808 92.168C2.3437 92.4609 97.6562 92.4609 98.6718 92.168C100.078 91.7773 100.019 92.7734 99.9609 74.1602L99.9023 57.5195L99.4531 56.25C98.5742 53.7891 96.7773 51.6797 94.5312 50.4883C92.1289 49.2383 91.9336 49.2187 81.7187 49.2187H72.5L72.4023 39.8828C72.3046 29.6094 72.2461 28.9258 70.8984 25.0391C67.7929 16.1133 59.4921 9.37499 50 8.10546C47.1679 7.71484 25.0195 7.73437 22.2656 8.10546ZM23.7304 12.0898C20.957 13.9062 18.2421 16.6211 16.3085 19.5117C15.2148 21.1719 15.0976 21.9922 15.8398 22.7734C16.3281 23.3008 17.4804 23.418 18.0078 22.9883C18.164 22.8711 18.7695 22.0508 19.3359 21.1914C21.3085 18.2226 24.707 15.2539 28.0859 13.5742C32.0117 11.6406 34.0039 11.3281 42.3242 11.3281C48.125 11.3281 49.082 11.3672 50.8007 11.7187C58.4961 13.2812 64.4726 18.2812 67.3632 25.5078C68.789 29.082 68.8086 29.2383 68.8867 39.8828L68.9648 49.375L68.164 49.5117C66.7773 49.7461 64.7265 50.918 63.4179 52.2266C61.1718 54.4922 60.3515 56.6797 60.3515 60.5273V62.8906H54.2578C50.8984 62.8906 47.832 62.9687 47.4414 63.0664L46.7382 63.2227L46.621 60.4297C46.4843 57.4219 46.1523 55.9961 45.1562 54.2969C44.414 53.0469 42.3828 51.0937 41.1914 50.4687C38.7695 49.2578 39.5898 49.3164 27.0507 49.2187L15.5273 49.1211L15.4296 40.957L15.332 32.7734L14.8632 32.4023C14.2187 31.875 13.1835 31.9141 12.5976 32.5195L12.1093 32.9883V41.1133V49.2187H10.5273C8.04683 49.2187 5.66402 49.9805 4.12105 51.2695L3.51558 51.7969V41.6602C3.51558 30.6836 3.5937 29.707 4.62886 26.6211C6.81636 20.0195 12.2656 14.5898 18.8476 12.4219C20.5468 11.8555 22.8906 11.3867 24.121 11.3476L24.9023 11.3281L23.7304 12.0898ZM27.6562 53.7109C26.8359 54.9219 26.25 56.4258 25.9765 58.0469C25.8593 58.8086 25.7812 64.9609 25.7812 74.0625V88.8672H14.6484H3.51558L3.55464 73.3789L3.61323 57.9102L4.16011 56.7383C4.76558 55.4297 5.56636 54.4922 6.73823 53.75C8.26167 52.7734 8.43745 52.7539 18.7109 52.7539L28.3203 52.7344L27.6562 53.7109ZM39.0625 53.3398C40.4296 53.9844 41.7187 55.2734 42.3632 56.6406L42.871 57.7148L42.9296 73.2812L42.9687 88.8672H36.1328H29.2773L29.3359 73.4766C29.3945 56.5234 29.3359 57.5 30.6445 55.6055C31.3671 54.5508 32.3632 53.7695 33.7695 53.1836C35.2734 52.5586 37.5195 52.6172 39.0625 53.3398ZM81.1132 53.7305C79.8047 55.5469 79.4336 56.9141 79.3359 60.2734L79.2578 63.2227L78.5351 63.0664C78.1445 62.9687 74.6875 62.8906 70.8593 62.8906H63.8671V60.6836C63.8671 57.5977 64.414 56.0547 66.0351 54.5703C67.9492 52.832 68.3203 52.7539 75.625 52.7539L81.8359 52.7344L81.1132 53.7305ZM92.5781 53.3398C93.9453 53.9844 95.2343 55.2734 95.8789 56.6406L96.3867 57.7148L96.4453 73.2812L96.4843 88.8672H89.6484H82.8125L82.8515 73.3789L82.9101 57.9102L83.457 56.7383C84.2968 54.9219 85.7812 53.5937 87.5976 52.9883C88.8672 52.5781 91.3086 52.7539 92.5781 53.3398ZM78.1054 66.6211C79.0234 66.9531 79.2968 67.6562 79.2968 69.8047C79.2968 71.7578 79.1015 72.5586 78.5546 72.9687C78.2812 73.1836 75.1757 73.2227 62.9296 73.2422H47.6367L47.1679 72.7539C46.6992 72.3047 46.6796 72.168 46.6796 69.8633C46.6796 67.6172 46.6992 67.4219 47.1289 67.0508C47.3632 66.8359 47.6953 66.6016 47.8515 66.543C48.457 66.3281 77.4609 66.4062 78.1054 66.6211ZM79.2968 82.7539V88.8672H62.9882H46.6796V82.7539V76.6602H62.9882H79.2968V82.7539Z" fill="white"/>
<path d="M37.09 16.6992C36.797 16.8555 36.465 17.2656 36.3478 17.5976C36.0744 18.3984 36.4064 19.1797 37.5392 20.2734L38.3986 21.1133L38.1251 22.2461C37.8908 23.2226 37.8908 23.5156 38.1251 24.4726L38.4181 25.5664L37.5392 26.4062C37.0705 26.875 36.5431 27.539 36.4064 27.8906C36.0158 28.7695 36.465 29.7656 37.4025 30.0781C38.2228 30.3515 38.8087 30.0781 40.0001 28.8476C40.84 27.9883 40.8595 27.9883 41.5626 28.2422C42.4611 28.5547 43.3205 28.5742 44.4533 28.3008L45.3126 28.0859L46.3478 29.043C46.9142 29.5703 47.6173 30.0781 47.9103 30.1562C48.9455 30.4101 50.0001 29.4726 50.0001 28.3008C50.0001 28.0859 49.5119 27.3828 48.8869 26.7383L47.7931 25.5859L48.008 24.8242C48.3009 23.8867 48.3009 22.793 48.0275 21.7969C47.8126 21.0547 47.8322 21.0351 48.8087 20.039C49.9611 18.8867 50.2345 18.0469 49.7267 17.2851C49.3361 16.6797 48.5353 16.3476 47.8908 16.5039C47.6369 16.5625 46.9533 17.0703 46.3673 17.6172C45.3126 18.6133 45.3126 18.6133 44.5509 18.3984C43.6134 18.1055 42.7931 18.1055 41.6798 18.3789L40.7814 18.6133L39.7853 17.6172C38.6525 16.5039 37.8908 16.25 37.09 16.6992ZM44.2384 22.168C45.2736 23.1836 44.5509 25 43.1447 25C42.2658 25 41.4064 24.1601 41.4064 23.3203C41.4064 21.8945 43.2423 21.1523 44.2384 22.168Z" fill="white"/>
<path d="M22.9494 32.5195C22.1095 33.3398 22.2658 34.1601 23.5353 35.5078C24.5119 36.582 24.59 36.7187 24.4142 37.207C24.1603 37.8711 24.1603 39.5508 24.4142 40.4101C24.59 41.0547 24.5509 41.1328 23.5353 42.207C22.2658 43.5351 22.1095 44.3164 22.9689 45.1953C23.8283 46.0351 24.5705 45.8984 25.9376 44.6289C27.0314 43.6133 27.1291 43.5742 27.7541 43.75C28.5939 44.0039 30.0001 44.0039 30.84 43.75C31.465 43.5742 31.5626 43.6133 32.6564 44.6289C33.5744 45.4883 33.9455 45.7031 34.4533 45.7031C35.3712 45.7031 36.133 44.9609 36.133 44.0429C36.133 43.4375 35.9572 43.1445 35.0587 42.207C34.0431 41.1328 33.9845 41.0351 34.1798 40.5078C34.4533 39.7851 34.4533 37.9492 34.1798 37.2265C33.9845 36.6992 34.0431 36.6015 35.0587 35.5273C35.9572 34.5898 36.133 34.2968 36.133 33.6914C36.133 32.7343 35.4298 32.0312 34.4728 32.0312C33.8673 32.0312 33.5744 32.207 32.6369 33.1054C31.5626 34.1211 31.465 34.1797 30.9376 33.9648C30.215 33.6914 28.3791 33.6914 27.6564 33.9648C27.1291 34.1797 27.0314 34.1211 25.9572 33.1054C25.0197 32.207 24.7267 32.0312 24.1212 32.0312C23.633 32.0312 23.2814 32.1875 22.9494 32.5195ZM30.4884 37.6172C31.3478 38.3984 30.9962 40 29.883 40.3906C28.5353 40.8789 27.2853 39.6484 27.7541 38.3008C28.1447 37.1875 29.6095 36.8164 30.4884 37.6172Z" fill="white"/>
<path d="M50.6249 32.4219C50.078 32.9297 49.9022 33.6914 50.1757 34.2969C50.2928 34.5703 50.8007 35.2148 51.2889 35.7422C52.1483 36.6601 52.1874 36.7383 51.9725 37.3242C51.6991 38.125 51.6991 39.6094 51.9725 40.4101C52.1874 41.0156 52.1678 41.0937 51.3085 41.9531C49.8436 43.4765 49.6874 44.1211 50.5077 45.0976C50.8983 45.5664 51.1718 45.7031 51.6991 45.7031C52.246 45.7031 52.578 45.5078 53.5155 44.6094C54.6288 43.5547 54.6874 43.5156 55.2928 43.7305C56.0741 44.0039 57.8124 44.0039 58.496 43.75C58.9843 43.5742 59.121 43.6523 60.1952 44.6289C61.4061 45.7422 62.0507 45.957 62.91 45.4883C63.4178 45.2344 63.828 44.2578 63.7303 43.6523C63.6718 43.418 63.1835 42.7539 62.6171 42.207L61.6014 41.1914L61.8749 40.039C62.1288 39.0039 62.1288 38.7305 61.8749 37.6953L61.6014 36.543L62.4608 35.7031C63.496 34.6875 63.7303 34.2773 63.7108 33.5351C63.6913 32.6953 62.9882 32.0312 62.0897 32.0312C61.4647 32.0312 61.1718 32.207 60.2147 33.0664L59.0819 34.1015L57.9686 33.8672C56.9335 33.6523 55.7421 33.7305 54.8827 34.0625C54.6874 34.1406 54.2186 33.8086 53.5155 33.1055C52.6171 32.207 52.3436 32.0312 51.7577 32.0312C51.3085 32.0312 50.8983 32.1875 50.6249 32.4219ZM58.1639 37.8125C59.0819 38.8476 58.3788 40.4492 56.9725 40.4883C55.996 40.5078 55.2733 39.8437 55.2733 38.8867C55.2928 37.2461 57.0702 36.582 58.1639 37.8125Z" fill="white"/>
</g>
<defs>
<clipPath id="clip0_1_833">
<rect width="100" height="100" fill="white"/>
</clipPath>
</defs>
</svg>
