<svg width="100" height="100" viewBox="0 0 100 100" fill="none" xmlns="http://www.w3.org/2000/svg">
<g clip-path="url(#clip0_1_851)">
<path d="M48.2421 0.898438C35.8007 1.83594 25.6444 8.51562 20.2147 19.3359C17.1874 25.3516 15.996 32.793 17.1678 38.3984C19.1796 48.1445 27.6171 62.4805 41.7382 80.2344C43.3788 82.2852 44.7264 84.0234 44.7264 84.082C44.7264 84.1406 42.7928 84.1797 40.4491 84.1797C36.2108 84.1797 36.1522 84.1797 35.6249 84.6484C34.8632 85.293 34.8632 86.3867 35.6249 87.0312L36.1522 87.5H49.9999H63.8475L64.3749 87.0312C65.1366 86.3867 65.1366 85.293 64.3749 84.6484C63.8475 84.1797 63.7889 84.1797 59.5507 84.1797C57.2069 84.1797 55.2733 84.1406 55.2733 84.082C55.2733 84.0234 56.621 82.2852 58.2616 80.2344C72.3632 62.5 80.8202 48.125 82.8319 38.3984C83.3007 36.1328 83.3788 32.3633 83.0077 29.668C82.0507 22.8516 78.9257 16.3477 74.1796 11.2695C73.3202 10.3711 73.0077 10.1562 72.5194 10.1562C71.6405 10.1562 71.3085 10.332 70.996 10.957C70.5272 11.8359 70.6444 12.207 71.6796 13.418C74.9413 17.207 76.7772 20.1562 78.1249 23.8477C79.1796 26.7188 79.6288 28.7695 79.8632 32.1289C80.2147 37.0117 79.16 41.0742 75.6835 48.1445C71.3475 56.9922 64.8046 66.7188 54.9608 79.0234C50.9178 84.082 50.5077 84.4336 49.3944 83.9844C48.4178 83.5742 39.7655 72.5586 34.3553 64.8438C27.5194 55.0977 22.2264 45.0781 20.703 38.9648C19.6483 34.7461 19.9218 29.8438 21.5038 24.8828C22.1678 22.8125 23.9257 19.2188 25.2343 17.2852C28.5546 12.3828 33.8085 8.24219 39.3749 6.15234C46.0546 3.63281 53.7108 3.61328 60.371 6.05469C62.2655 6.75781 62.7147 6.77734 63.3983 6.17188C64.0819 5.60547 64.16 4.49219 63.5741 3.90625C62.8124 3.16406 58.3788 1.77734 55.078 1.26953C53.2811 0.996094 49.6483 0.800781 48.2421 0.898438Z" fill="white"/>
<path d="M47.0114 16.1328C40.8004 17.2461 35.7223 21.875 33.9449 28.0664C33.3395 30.1367 33.3004 34.7656 33.8668 36.7188C35.859 43.5938 41.1715 48.1445 48.2614 49.043C51.2106 49.4336 54.5504 48.8086 57.5192 47.3242C61.9918 45.0977 65.3121 40.7422 66.3082 35.7617C66.7184 33.7695 66.6207 30.0586 66.1129 28.2227C65.4293 25.7813 63.9254 23.0664 62.2457 21.2305C61.5035 20.4297 61.2887 20.3125 60.6051 20.3125C60.0582 20.3125 59.7067 20.4297 59.4137 20.7617C58.7106 21.5039 58.8473 22.2852 59.8824 23.5352C62.8512 27.1875 63.8278 30.8789 62.9879 35.2735C62.5192 37.7344 61.3668 39.8242 59.3746 41.8164C58.027 43.1641 57.402 43.6328 56.0543 44.2969C53.9059 45.332 52.3629 45.7031 50.1364 45.7422C47.7535 45.7813 46.3668 45.4688 44.1989 44.4141C37.5582 41.2305 34.8239 33.2227 38.1051 26.5625C38.7496 25.2735 39.277 24.5703 40.6051 23.2227C42.0114 21.8164 42.5973 21.3867 44.1403 20.625C45.9957 19.707 48.2028 19.1406 49.8239 19.1406C50.8004 19.1406 51.5621 18.457 51.5621 17.5977C51.5621 15.8985 50.3903 15.5274 47.0114 16.1328Z" fill="white"/>
<path d="M13.5349 71.2305C11.8748 71.7969 11.3474 72.5781 5.85913 82.4023C0.624752 91.7773 0.0192835 92.9688 -0.000247798 94.0625C-0.019779 95.8984 1.1521 97.7148 2.89038 98.5742L4.00366 99.1211H49.9997H95.9958L97.1091 98.5742C98.8474 97.7148 100.019 95.8984 99.9997 94.0625C99.9802 92.9688 99.3747 91.7773 94.1404 82.4023C90.3513 75.6445 88.7497 72.9297 88.1443 72.3242C86.7185 70.957 86.3865 70.8984 78.7693 70.8984H72.0505L71.5818 71.3867C70.9177 72.0312 70.9177 73.0078 71.6013 73.6523L72.1091 74.1211L78.8474 74.2188C85.4685 74.3164 85.5857 74.3164 85.9177 74.7461C86.3669 75.293 96.2497 92.9883 96.5427 93.7305C96.8357 94.5312 96.4646 95.2539 95.6052 95.625C94.5896 96.0352 5.40991 96.0352 4.39428 95.625C3.63256 95.293 3.20288 94.5898 3.39819 93.9062C3.53491 93.3398 13.7888 75 14.1794 74.6094C14.4138 74.3555 15.5662 74.2969 21.1912 74.2188L27.8904 74.1211L28.3982 73.6523C29.0818 73.0078 29.0818 72.0312 28.4177 71.3867L27.949 70.8984L21.1521 70.918C15.6443 70.918 14.199 70.9766 13.5349 71.2305Z" fill="white"/>
<path d="M17.6559 79.375C17.2653 79.5508 16.9723 79.8828 16.8356 80.2539C16.5817 80.957 16.6793 81.3477 17.2457 81.9727C17.6364 82.4023 17.7731 82.4219 21.0153 82.4219H24.3746L26.8942 84.082C28.7496 85.3125 29.5504 85.7422 30.0387 85.7422C31.2887 85.7422 32.07 84.2969 31.3668 83.2812C31.2106 83.0664 29.8434 82.0508 28.3004 81.0352L25.527 79.1992L21.8942 79.1602C19.1403 79.1211 18.1246 79.1602 17.6559 79.375Z" fill="white"/>
<path d="M74.4723 79.2969C73.652 79.6289 68.7692 83.0078 68.5543 83.3789C68.2223 84.0235 68.3395 84.7656 68.8473 85.2539C69.6871 86.1133 70.3121 85.9375 73.1051 84.0821L75.6246 82.4219H78.984C82.2262 82.4219 82.3629 82.4024 82.7535 81.9727C83.3395 81.3281 83.4176 80.918 83.1246 80.1953C82.9488 79.7461 82.6559 79.4727 82.2262 79.3164C81.4645 79.0625 75.1168 79.043 74.4723 79.2969Z" fill="white"/>
<path d="M12.2071 89.7461C11.5821 90.3516 11.5821 91.211 12.1875 91.9336L12.6563 92.4805L19.375 92.5391C23.0469 92.5781 26.3672 92.5391 26.7383 92.4805C28.1836 92.2071 28.8086 90.7031 27.8321 89.7461L27.3633 89.2578H20.0196H12.6758L12.2071 89.7461Z" fill="white"/>
<path d="M72.168 89.7461C71.543 90.3516 71.543 91.2109 72.1485 91.9336L72.6172 92.4805H79.9805H87.3438L87.8125 91.9336C88.418 91.2109 88.418 90.3516 87.793 89.7461L87.3242 89.2578H79.9805H72.6367L72.168 89.7461Z" fill="white"/>
</g>
<defs>
<clipPath id="clip0_1_851">
<rect width="100" height="100" fill="white"/>
</clipPath>
</defs>
</svg>
