<svg width="100" height="100" viewBox="0 0 100 100" fill="none" xmlns="http://www.w3.org/2000/svg">
<g clip-path="url(#clip0_1_860)">
<path d="M48.8086 0.214844C48.2031 0.449219 1.05465 39.5312 0.52731 40.2539C-0.0390967 41.0547 -0.117222 42.3633 0.351528 43.3789C0.859341 44.4922 5.07809 49.1992 5.99606 49.6875C6.8945 50.1758 8.18356 50.1562 9.17965 49.6289L9.9609 49.2188V73.2031C9.9609 96.0938 9.98044 97.207 10.332 97.9492C10.7422 98.8477 11.3867 99.4922 12.1679 99.7852C12.9492 100.078 87.0507 100.078 87.832 99.7852C88.6132 99.4922 89.2578 98.8477 89.6679 97.9492C90.0195 97.207 90.039 96.0938 90.039 73.1836C90.039 60 90.0976 49.2188 90.1757 49.2188C90.2343 49.2188 90.4492 49.3359 90.6054 49.4922C91.5429 50.3516 93.7695 50.1562 94.7851 49.1406C96.6601 47.2656 99.5898 43.7109 99.8047 43.0664C100.098 42.168 99.9609 40.918 99.4531 40.2539C99.2578 39.9805 97.0507 38.0469 94.5703 35.9766L90.039 32.1875V22.5391C90.039 14.2773 90 12.7734 89.7461 12.168C89.3359 11.1914 88.9257 10.7617 87.9882 10.332C87.3047 10.0195 86.6601 9.96094 82.5195 9.96094C77.4218 9.96094 76.8359 10.0781 75.8398 11.1523C75.0976 11.9531 75 12.5977 75 16.2305V19.7266L70.3711 15.8789C67.8125 13.7695 62.7148 9.53125 59.0234 6.46484C55.332 3.39844 51.9726 0.683594 51.5234 0.429688C50.6836 -0.0195312 49.6679 -0.0976562 48.8086 0.214844ZM77.9882 26.543L96.6601 42.0508L95.7226 43.1445C95.1953 43.75 94.2578 44.8047 93.6132 45.4883L92.4609 46.7383L85.625 41.0742C50.8789 12.207 50.7422 12.1094 50 12.1094C49.2382 12.1094 50.4882 11.0938 18.4765 37.6758C12.5586 42.5781 7.67575 46.6016 7.59762 46.6406C7.5195 46.6797 6.54293 45.6445 5.41012 44.375L3.33981 42.0508L17.9101 29.9609C25.9375 23.3008 36.4257 14.6094 41.25 10.6055L50.0195 3.33984L54.6679 7.1875C57.207 9.29688 67.7148 18.0078 77.9882 26.543ZM86.7187 21.3086C86.7187 25.7227 86.6406 29.2969 86.5625 29.2578C86.4648 29.2188 84.5898 27.6953 82.3828 25.8789L78.3593 22.5586L78.3398 17.9102L78.3203 13.2812H82.5195H86.7187V21.3086ZM64.0039 27.4805C71.6211 33.7891 79.8242 40.6055 82.2851 42.6367L86.7187 46.3086V71.5039V96.6797H50H13.2812V71.5039V46.3281L31.5039 31.1914C41.5039 22.8516 49.8242 16.0352 49.9414 16.0352C50.0781 16.0156 56.4062 21.1719 64.0039 27.4805Z" fill="white"/>
<path d="M66.6213 38.5742C65.2541 38.9648 64.5314 39.4141 63.4377 40.5859C62.1095 41.9922 61.3478 44.5117 61.8361 45.8008C61.9924 46.1719 62.9103 46.6797 63.4377 46.6797C64.0822 46.6797 64.8244 45.9375 64.9416 45.1562C65.1759 43.7891 65.4494 43.1836 66.1134 42.5977C67.8908 41.0547 70.3517 41.543 71.3088 43.6328C71.758 44.6289 71.7775 45.2734 71.3674 46.2891C71.0939 46.9727 70.508 47.5 67.5588 49.7266C63.672 52.6562 62.7736 53.6719 62.1095 55.8203C61.5627 57.5977 61.5822 58.8672 62.2072 59.4727L62.6759 59.9609H68.2424C71.2892 59.9609 73.9455 59.9023 74.1213 59.8438C74.4924 59.6875 75.0002 58.7695 75.0002 58.2031C75.0002 57.9688 74.7463 57.5195 74.4338 57.207L73.8674 56.6406H69.6486C66.8166 56.6406 65.4299 56.582 65.4299 56.4258C65.4299 55.8203 66.7384 54.5703 69.7658 52.2656C72.1877 50.4297 73.3205 49.4336 73.7892 48.75C75.5666 46.0742 75.3127 42.7734 73.1447 40.4492C71.5236 38.7109 68.8674 37.9492 66.6213 38.5742Z" fill="white"/>
<path d="M22.5 45.2539C22.1289 45.3906 16.9922 52.2656 16.7774 52.9297C16.3477 54.1406 17.7539 55.3906 18.9258 54.8242C19.1992 54.707 19.9024 53.9453 20.5078 53.1836L21.5821 51.7578L21.6797 69.6289C21.7774 86.4453 21.7969 87.5 22.1289 87.832C22.461 88.164 23.8867 88.1836 49.5508 88.2812L76.6211 88.3789L75.0781 89.5507C73.4766 90.7812 73.1641 91.289 73.4961 92.2461C73.7305 92.9297 74.6485 93.4375 75.3516 93.2617C76.1328 93.0664 82.8516 87.8906 83.1641 87.2461C83.6524 86.2304 83.2617 85.7812 79.2969 82.8125C76.2305 80.5273 75.5274 80.0781 74.961 80.0781C74.0821 80.0781 73.4375 80.7422 73.4375 81.6601C73.4375 82.539 73.5156 82.6367 75.1953 83.8867L76.6406 84.9609H50.8203H25V68.3398V51.6992L25.7227 52.6562C27.3633 54.8632 27.9297 55.2539 28.9844 54.8047C29.7461 54.4922 30.1563 53.5742 29.8828 52.832C29.6094 52.1093 24.4922 45.3906 24.1211 45.2343C23.75 45.0976 22.8711 45.0976 22.5 45.2539Z" fill="white"/>
<path d="M40.8787 58.8281C40.3513 59.4141 34.9021 79.668 35.0779 80.3906C35.2341 81.0352 36.0545 81.6406 36.7576 81.6406C37.9099 81.6406 38.0466 81.3281 40.3318 72.7148C41.5232 68.2812 42.5388 64.7266 42.617 64.8047C42.6951 64.8828 44.0232 67.3633 45.6052 70.3125C47.1677 73.2617 48.6716 75.8789 48.9451 76.1133C49.5701 76.6797 50.4295 76.6797 51.0545 76.1133C51.3279 75.8789 52.656 73.5742 54.0232 70.9961C55.3709 68.418 56.7185 65.918 56.992 65.4492L57.4802 64.5703L58.906 69.9414C59.6873 72.8906 60.6638 76.5234 61.074 78.0273C61.8552 80.9766 62.2459 81.6406 63.2224 81.6406C63.9255 81.6406 64.6091 81.1719 64.863 80.5273C65.117 79.8438 59.7459 59.5117 59.1209 58.8281C58.5154 58.1836 57.4021 58.2422 56.7966 58.9453C56.5623 59.2578 54.9412 62.1484 53.2224 65.3906C51.5037 68.6328 50.0584 71.2891 49.9998 71.2891C49.9412 71.2891 48.4959 68.6328 46.7771 65.3906C45.0584 62.168 43.4373 59.2578 43.2029 58.9453C42.5974 58.2422 41.4841 58.1836 40.8787 58.8281Z" fill="white"/>
</g>
<defs>
<clipPath id="clip0_1_860">
<rect width="100" height="100" fill="white"/>
</clipPath>
</defs>
</svg>
