<svg width="100" height="100" viewBox="0 0 100 100" fill="none" xmlns="http://www.w3.org/2000/svg">
<path d="M49.3748 5.29297C47.9099 6.05469 47.9685 5.70312 47.8513 17.1875C47.7341 29.8242 48.0662 28.4766 44.0427 32.6367C41.7576 34.9805 41.1326 35.7617 40.5466 36.9336C39.9021 38.2617 39.2185 40.5078 38.9646 42.207L38.8669 42.9102L37.7927 42.8125C36.1521 42.6758 35.0388 43.0664 33.8669 44.2188C33.0662 45 32.7732 45.4492 32.5193 46.3477C31.8748 48.5742 32.5193 50.5273 34.5701 52.5781C35.3318 53.3398 35.9373 53.9844 35.9373 54.0234C35.9373 54.0625 35.5662 54.1016 35.1169 54.1016C33.8083 54.1016 29.0037 54.8633 26.9529 55.3711C23.7107 56.1914 21.2107 57.1484 20.6443 57.7734C20.1169 58.3398 20.2732 59.3359 20.9568 59.8438C21.4841 60.2344 21.5232 60.2344 22.4216 59.9023C28.6716 57.5391 34.5896 56.6602 42.2849 56.8945C59.0427 57.4414 68.0662 63.6523 70.5076 76.3281C70.7224 77.4609 70.9568 79.2969 71.0349 80.3906L71.1521 82.4219H55.4294C39.8826 82.4219 39.7263 82.4219 39.2966 82.8125C38.7107 83.3594 38.7107 84.4141 39.2966 84.9609C39.7263 85.3516 39.8826 85.3516 56.1521 85.3516H72.5779L72.988 86.3281L73.3982 87.3047H40.1169H6.83569V86.6602C6.83569 85.2734 6.07397 85.3516 20.7224 85.3516C33.7302 85.3516 33.9255 85.3516 34.3357 84.9609C34.9216 84.4141 34.9216 83.3594 34.3357 82.8125C33.9255 82.4219 33.7107 82.4219 21.6208 82.4219H9.31616L9.43335 80.3906C9.8435 73.6719 12.1677 68.0273 16.1521 64.1211C17.1287 63.1641 17.3826 62.7734 17.3826 62.3047C17.3826 61.5234 16.7771 60.9375 15.9373 60.9375C14.238 60.9375 10.2537 66.0742 8.57397 70.4102C7.38257 73.457 6.44507 78.3008 6.44507 81.3281C6.44507 82.5391 6.44507 82.5391 5.60522 83.1445C4.60913 83.8281 4.06226 84.8633 3.94507 86.2695L3.86694 87.3047H3.08569C1.95288 87.3047 0.859131 87.9492 0.37085 88.9062C0.0192871 89.5898 -0.0393066 89.9609 0.0388184 91.1328C0.156006 92.793 0.624756 93.7109 1.81616 94.4922L2.61694 95.0195H49.9998H97.3826L98.1833 94.4922C99.3747 93.7109 99.8435 92.793 99.9607 91.1328C100.078 89.3359 99.6091 88.3008 98.4372 87.6953C97.7732 87.3438 97.2849 87.3047 94.5505 87.3047H91.4255L91.8747 86.2891C92.6169 84.6094 92.8318 83.2422 92.7341 81.0352C92.6169 78.8086 92.3826 78.0859 91.6599 77.7539C90.9958 77.4609 90.7419 77.4805 90.2146 77.9102C89.7654 78.2812 89.7458 78.3789 89.7458 81.0938C89.7458 83.7305 89.7068 83.9453 89.2185 85.0195C88.9255 85.6445 88.4958 86.4062 88.281 86.7383L87.8513 87.3047L82.3826 87.2656C76.2497 87.207 76.6794 87.3047 76.4646 85.6836C76.3865 85.0586 76.1326 84.4727 75.6443 83.8477L74.9607 82.9492L75.0388 81.1719C75.1169 79.668 75.3122 78.8672 76.2497 76.0938C78.1247 70.4883 78.8865 66.7773 78.906 63.2422C78.906 62.3242 78.9646 61.4258 79.0232 61.25C79.1208 60.9766 79.6091 60.9375 82.4216 60.9375C86.2302 60.9375 85.9372 60.7227 85.9372 63.3789C85.9568 66.2695 87.0701 72.2656 87.8122 73.3789C88.3787 74.2773 89.824 74.1406 90.2537 73.1641C90.4294 72.793 90.3708 72.2852 89.9607 70.6641C89.3162 68.1445 88.9255 65.3711 88.8083 62.5977L88.7302 60.4492L89.7849 59.9805C91.9138 59.043 93.4958 56.9336 93.9451 54.4336C94.0622 53.8477 94.1794 52.2461 94.199 50.8789C94.238 48.457 94.238 48.3984 93.7497 48.0078C93.3005 47.6367 93.0662 47.6172 90.4294 47.7148C87.4021 47.8125 85.7419 48.1836 84.5896 49.0039L83.9841 49.4336V47.8711V46.3086L85.0193 46.0156C87.1091 45.4102 89.199 43.6523 90.1951 41.6797C91.8747 38.3594 90.449 33.418 86.6794 29.4727C85.449 28.1836 84.3357 27.7344 82.4216 27.7344C80.5271 27.7344 79.4724 28.1641 78.1833 29.4727C74.4138 33.3203 72.9685 38.3398 74.6482 41.6797C75.6443 43.6523 77.7341 45.4102 79.824 46.0156L80.8591 46.3086V52.168V58.0078H79.8044C78.574 58.0078 77.8318 58.2422 77.1872 58.8477C76.3083 59.668 76.1521 60.2734 75.9763 63.3594C75.7615 66.8945 75.2537 69.6484 74.199 72.9883L73.3982 75.4688L72.949 73.7305C72.363 71.4258 71.6599 69.6289 70.6052 67.5977L69.7263 65.9766V56.4648C69.7068 42.7344 69.4724 40.2734 67.8513 36.9336C67.2654 35.7617 66.6404 34.9805 64.3552 32.6367C60.3318 28.4766 60.6638 29.8242 60.5466 17.1875C60.4294 5.66406 60.488 6.03516 58.9841 5.27344C58.281 4.92188 57.8513 4.88281 54.1599 4.88281C50.5076 4.90234 50.0193 4.94141 49.3748 5.29297ZM57.6169 10.6445V13.4766H54.199H50.781V10.6445V7.8125H54.199H57.6169V10.6445ZM57.6169 21.3867C57.6169 29.2969 58.0271 30.5273 62.031 34.4727C64.7068 37.1094 65.2146 37.832 65.9372 39.9805C66.3865 41.2891 66.4841 41.9336 66.5622 44.4727L66.6599 47.4609H66.0349C65.2732 47.4609 64.4529 48.2227 64.4529 48.9258C64.4529 49.6289 65.2732 50.3906 66.0154 50.3906H66.6013V56.25V62.1094L64.9607 60.8008C60.3708 57.0898 53.7888 54.7461 46.3279 54.1797C45.3318 54.1016 44.531 54.0039 44.531 53.9648C44.531 53.9062 44.9802 53.4766 45.5076 52.9883C46.0544 52.5 46.7576 51.7188 47.0896 51.25L47.6755 50.3906H53.6326H59.5896L60.0583 49.9023C60.3318 49.6484 60.5466 49.1992 60.5466 48.9258C60.5466 48.6523 60.3318 48.2031 60.0583 47.9492L59.5896 47.4609H53.9255H48.2615L47.949 46.3281C47.6951 45.4492 47.4021 45 46.6208 44.2383C45.488 43.1445 44.5701 42.7734 42.9294 42.7734H41.8552L42.031 41.6992C42.2263 40.4102 42.8513 38.6719 43.5154 37.5977C43.7693 37.168 45.0583 35.7617 46.3669 34.4727C50.3708 30.5078 50.781 29.2969 50.781 21.3867V16.4062H54.199H57.6169V21.3867ZM83.8669 30.918C84.3162 31.25 84.1404 31.6211 83.1247 32.6172L82.4216 33.2812L81.5427 32.4219C80.5857 31.4844 80.488 31.1719 81.0154 30.8789C81.5037 30.5859 83.4568 30.625 83.8669 30.918ZM85.2341 40.6641C85.9763 41.9336 85.8591 42.3633 84.6677 42.9688C81.7576 44.4141 77.6365 42.5195 76.9724 39.4531C76.699 38.1836 76.9529 36.8359 77.8513 34.9609L78.5349 33.4961L81.6208 36.6211C83.3201 38.3398 84.9412 40.1562 85.2341 40.6641ZM87.2263 35.4297C87.7537 36.582 88.1833 38.5547 88.0076 39.0039C87.9099 39.2383 87.7146 39.082 87.2849 38.457C86.9529 37.9883 86.1716 37.0898 85.5857 36.4844L84.4919 35.3516L85.3513 34.4727C86.3279 33.4766 86.3279 33.4766 87.2263 35.4297ZM38.906 46.4844C39.4333 46.9922 39.9021 47.2656 40.2341 47.2656C40.5662 47.2656 41.0349 46.9922 41.5623 46.4844C42.2263 45.8398 42.4998 45.7031 43.1248 45.7031C44.5701 45.7031 45.5466 47.0703 45.1365 48.5156C44.8435 49.5898 44.2576 50.2734 42.1677 51.9727L40.2341 53.5352L38.3005 51.9727C36.2107 50.2734 35.6248 49.5898 35.3318 48.5156C34.9216 47.0703 35.8982 45.7031 37.3435 45.7031C37.9685 45.7031 38.2419 45.8398 38.906 46.4844ZM91.3083 51.4062C91.2693 51.875 91.1716 52.7539 91.113 53.3789C90.9177 55.3906 89.7654 56.9531 88.1052 57.5C87.6169 57.6758 86.4841 57.8711 85.6052 57.9297L83.9841 58.0664V56.7188C83.9841 52.5 85.8591 50.6641 90.1755 50.6055L91.406 50.5859L91.3083 51.4062ZM97.0701 90.8594C97.0701 91.1914 96.9333 91.6406 96.738 91.8359C96.4451 92.168 94.7263 92.1875 50.0388 92.1875C7.14819 92.1875 3.61304 92.168 3.28101 91.8555C3.08569 91.6797 2.92944 91.2695 2.92944 90.8789V90.2344H49.9998H97.0701V90.8594Z" fill="white"/>
</svg>
