<svg width="100" height="100" viewBox="0 0 100 100" fill="none" xmlns="http://www.w3.org/2000/svg">
<path d="M3.35938 10.332C2.1875 10.7422 1.15234 11.6406 0.527344 12.793L0.0976562 13.5742V29.9805C0.0976562 45.6055 0.117188 46.4258 0.46875 47.0703C0.976562 48.0273 1.91406 48.9844 2.83203 49.4727L3.61328 49.9023H50H96.3867L97.168 49.4727C98.0859 48.9844 99.0234 48.0273 99.5312 47.0703C99.8828 46.4258 99.9023 45.6055 99.9023 29.9805V13.5742L99.4727 12.7734C99.2383 12.3438 98.6914 11.6602 98.2617 11.2695C96.6992 9.86329 100.527 9.96094 49.9219 9.96094C6.26953 9.98047 4.35547 9.98047 3.35938 10.332ZM96.2109 13.9258L96.6797 14.4727V30V45.5469L96.1133 46.1133L95.5469 46.6797H92.793H90.0391V40.7031C90.0391 34.6289 90 34.1992 89.2773 33.6523C89.043 33.457 80.332 33.418 50.0586 33.3984C28.6719 33.3984 11.0156 33.457 10.8398 33.5156C10.0391 33.8281 9.96094 34.4727 9.96094 40.7227V46.6797H7.20703H4.45312L3.88672 46.1133L3.32031 45.5469V30.0391C3.32031 13.2031 3.28125 13.9258 4.375 13.4766C4.60938 13.3789 24.9023 13.3203 50.2539 13.3398L95.7422 13.3789L96.2109 13.9258ZM86.7188 41.6992V46.6797H50H13.2812V41.6992V36.7188H50H86.7188V41.6992Z" fill="white"/>
<path d="M77.1876 27.207C76.5821 27.8515 76.6211 28.9062 77.2657 29.5117C77.754 29.9609 77.8711 29.9805 81.211 30.039C85.1954 30.1172 85.9766 29.9805 86.4454 29.082C86.7969 28.3789 86.6797 27.6953 86.1329 27.1484C85.7618 26.7773 85.4688 26.7578 81.6797 26.7578C77.6758 26.7578 77.5977 26.7578 77.1876 27.207Z" fill="white"/>
<path d="M17.2658 40.5078C16.5627 41.0938 16.5041 42.1875 17.1486 42.832L17.5979 43.2617H50.0002H82.4025L82.8518 42.832C83.4963 42.1875 83.4377 41.0938 82.7346 40.5078L82.2072 40.0391H50.0002H17.7932L17.2658 40.5078Z" fill="white"/>
<path d="M20.586 53.7695L20.0196 54.2578L19.922 62.3437C19.8048 71.1523 19.8048 71.1328 18.5743 72.9101C17.1681 74.9804 15.0782 76.25 12.5978 76.5625C10.8204 76.7773 10.4884 76.9531 10.1564 77.7148C9.82433 78.5546 10.1173 79.3164 10.9767 79.746C11.5626 80.039 11.8556 80.0585 13.0665 79.8828C14.8048 79.6484 16.3478 79.1015 17.7345 78.2812C19.2189 77.3828 21.3087 75.1171 22.0509 73.6132C23.2032 71.2304 23.2423 70.8007 23.2423 62.1875C23.2423 53.3984 23.2814 53.6132 21.8556 53.3984C21.2892 53.3007 21.0548 53.3789 20.586 53.7695Z" fill="white"/>
<path d="M30.918 53.5156C30.6836 53.6133 30.4102 53.8476 30.3125 54.0429C30.1953 54.2383 30.0782 57.9101 30.0196 62.5976C29.9219 71.1719 29.8633 71.7578 28.9453 74.414C26.543 81.3086 20.2344 86.0351 12.6563 86.6406C10.8399 86.7773 10.2735 87.0703 10.0391 87.9883C9.88285 88.5937 10.3321 89.4726 10.9375 89.8047C11.6211 90.1562 14.1993 89.9414 16.836 89.3359C19.5118 88.6914 22.9297 87.0312 25.1172 85.2929C29.7071 81.6406 32.5977 76.289 33.2032 70.3515C33.3399 69.1211 33.3985 65.4101 33.3594 61.2695L33.3008 54.2578L32.7539 53.789C32.1875 53.3008 31.6602 53.2226 30.918 53.5156Z" fill="white"/>
<path d="M67.2658 53.7692L66.6994 54.2575L66.6408 61.2692C66.6017 65.4099 66.6603 69.1208 66.797 70.3513C67.7541 79.7849 74.3752 87.3044 83.5939 89.4333C85.8791 89.9607 88.4377 90.1364 89.0627 89.8044C89.6681 89.4724 90.1173 88.5935 89.9611 87.988C89.7267 87.07 89.1603 86.7771 87.3439 86.6403C78.1447 85.9177 71.133 79.238 70.1369 70.2536C70.0197 69.2185 69.922 65.2146 69.922 61.3669C69.922 53.4958 69.9416 53.613 68.5353 53.3982C67.9689 53.3005 67.7345 53.3786 67.2658 53.7692Z" fill="white"/>
<path d="M77.2461 53.8085L76.7578 54.2773V62.1484C76.7578 70.8007 76.7969 71.2304 77.9492 73.6132C78.6914 75.1171 80.7812 77.3828 82.2656 78.2812C83.6523 79.1015 85.1953 79.6484 86.9336 79.8828C88.1445 80.0585 88.4375 80.039 89.0234 79.746C89.8828 79.3164 90.1758 78.5546 89.8438 77.7148C89.5117 76.9531 89.1797 76.7773 87.4023 76.5625C84.2969 76.1718 81.6602 74.1406 80.5078 71.2109C80.2344 70.5273 80.1758 69.1992 80.0781 62.3437L79.9805 54.2578L79.4336 53.789C78.7109 53.1835 77.8516 53.1835 77.2461 53.8085Z" fill="white"/>
<path d="M41.6016 58.3008V59.9609H39.9414H38.2812V61.6211V63.2812H39.9414H41.6016V64.9414V66.6016H43.2617H44.9219V64.9414V63.2812H46.582H48.2422V61.6211V59.9609H46.582H44.9219V58.3008V56.6406H43.2617H41.6016V58.3008ZM44.9219 61.6211V63.2812H43.2617H41.6016V61.6211V59.9609H43.2617H44.9219V61.6211Z" fill="white"/>
<path d="M55.0781 66.6992V68.3594H53.418H51.7578V70.0195V71.6797H53.418H55.0781V73.3398V75H56.7383H58.3984V73.3398V71.6797H60.0586H61.7188V70.0195V68.3594H60.0586H58.3984V66.6992V65.0391H56.7383H55.0781V66.6992ZM58.3984 70.0195V71.6797H56.7383H55.0781V70.0195V68.3594H56.7383H58.3984V70.0195Z" fill="white"/>
<path d="M41.6016 79.9805V81.6406H39.9414H38.2812V83.3008V84.9609H39.9414H41.6016V86.6211V88.2812H43.2617H44.9219V86.6211V84.9609H46.582H48.2422V83.3008V81.6406H46.582H44.9219V79.9805V78.3203H43.2617H41.6016V79.9805ZM44.9219 83.3008V84.9609H43.2617H41.6016V83.3008V81.6406H43.2617H44.9219V83.3008Z" fill="white"/>
</svg>
